<svg width="140" height="47" viewBox="0 0 140 47" fill="none" xmlns="http://www.w3.org/2000/svg">
<mask id="mask0_199_15321" style="mask-type:luminance" maskUnits="userSpaceOnUse" x="0" y="0" width="99" height="31">
<path d="M98.7043 0H0V30.5384H98.7043V0Z" fill="white"/>
</mask>
<g mask="url(#mask0_199_15321)">
<path d="M61.8225 15.9565C62.2284 16.7483 62.6275 17.5293 63.0314 18.3077C63.3317 18.8864 63.6408 19.4607 63.9414 20.0394C64.1371 20.416 64.3303 20.7941 64.512 21.1777C64.5611 21.2811 64.5832 21.4066 64.5836 21.5221C64.588 23.4927 64.5866 25.4633 64.5866 27.4339C64.5866 27.6962 64.5696 27.7126 64.3054 27.7126C63.0048 27.7126 61.7046 27.7127 60.404 27.7126C60.1558 27.7126 60.1296 27.6872 60.1293 27.4403C60.1293 25.6117 60.1115 23.7828 60.1429 21.9547C60.15 21.5378 60.0028 21.2116 59.8314 20.8712C59.585 20.3812 59.3317 19.8946 59.0822 19.4061C58.8143 18.8817 58.5464 18.3575 58.2809 17.8321C57.9565 17.1903 57.6364 16.5462 57.3106 15.9051C56.9923 15.2793 56.6674 14.657 56.3491 14.0313C56.0359 13.415 55.7295 12.7952 55.4163 12.1788C54.9647 11.2908 54.509 10.405 54.0567 9.51743C53.7977 9.00864 53.5424 8.49774 53.283 7.98915C53.2237 7.87347 53.2544 7.81731 53.3812 7.80926C53.4207 7.80677 53.4606 7.80766 53.5001 7.80766C54.7895 7.80752 56.0785 7.80984 57.3675 7.80469C57.5481 7.80398 57.6494 7.86028 57.7363 8.03032C58.344 9.22142 58.9677 10.4043 59.5815 11.5924C59.8798 12.1701 60.1633 12.7557 60.4609 13.3339C60.8348 14.06 61.2162 14.7821 61.5938 15.5062C61.6698 15.6517 61.7431 15.7985 61.8225 15.9565Z" fill="#233650"/>
<path d="M36.0015 21.7383C35.8004 21.1824 35.6023 20.6395 35.405 20.0964C35.1981 19.5267 34.9926 18.9563 34.7847 18.3869C34.6426 17.9984 34.497 17.6111 34.3535 17.2232C34.1525 16.6813 33.9503 16.1401 33.7515 15.5975C33.5255 14.9805 33.3028 14.3623 33.0784 13.7448C32.6835 12.6585 32.2907 11.5714 31.8924 10.4864C31.5995 9.68837 31.3 8.89281 31.0017 8.09683C30.9123 7.85829 30.9459 7.80689 31.205 7.80682C32.4659 7.80658 33.7268 7.80662 34.9878 7.80672C35.2233 7.80675 35.2615 7.84366 35.3413 8.06606C35.5962 8.77519 35.858 9.4819 36.116 10.1899C36.3218 10.7543 36.5243 11.3197 36.7308 11.8837C36.9742 12.549 37.2213 13.213 37.465 13.8781C37.7203 14.5752 37.9732 15.2731 38.2281 15.9703C38.4384 16.545 38.6524 17.1185 38.8614 17.6937C39.0645 18.253 39.2618 18.8144 39.465 19.3738C39.6078 19.7681 39.756 20.1605 39.9012 20.554C40.1054 21.1069 40.3099 21.6596 40.5123 22.2131C40.7755 22.9316 41.0369 23.6507 41.2986 24.3697C41.5468 25.0513 41.7932 25.7335 42.0423 26.4147C42.1712 26.7661 42.302 27.1167 42.4356 27.4662C42.5181 27.6816 42.5014 27.7121 42.2683 27.7123C41.0986 27.7131 39.9285 27.7125 38.7584 27.7124C38.6903 27.7124 38.6221 27.7135 38.5539 27.7123C38.1787 27.7052 38.2121 27.7921 38.0434 27.3223C37.8883 26.8904 37.725 26.4614 37.5676 26.0305C37.4135 25.6101 37.2636 25.1885 37.1095 24.7683C36.8576 24.0822 36.603 23.3972 36.3512 22.7112C36.2339 22.3919 36.1201 22.0713 36.0015 21.7383Z" fill="#233650"/>
<path d="M69.6688 11.2531C69.5045 11.5706 69.345 11.8763 69.1895 12.1841C68.8555 12.8462 68.5242 13.5096 68.1906 14.1718C67.7008 15.1432 67.2103 16.1142 66.7196 17.085C66.5713 17.3782 66.4193 17.6695 66.2714 17.9629C66.2161 18.0722 66.1159 18.0948 66.026 18.0535C65.7093 17.9077 65.3675 17.7891 65.0935 17.5829C64.4888 17.1282 64.1395 16.4942 63.937 15.7656C63.8031 15.2841 63.7853 14.7935 63.7431 14.3037C63.7363 14.2253 63.7693 14.1354 63.8065 14.0623C64.1688 13.3502 64.5379 12.6416 64.9009 11.9298C65.1838 11.3747 65.4595 10.8159 65.7403 10.2598C66.1156 9.51737 66.4949 8.77722 66.8668 8.03312C66.9503 7.86588 67.06 7.80143 67.2533 7.80275C68.5423 7.81151 69.8317 7.80623 71.1207 7.80933C71.1946 7.80954 71.2683 7.84324 71.3422 7.86134C71.3184 7.93149 71.3024 8.00548 71.2696 8.07112C71.0702 8.47075 70.8664 8.86815 70.6653 9.26693C70.4179 9.75752 70.1711 10.2485 69.9247 10.7397C69.8409 10.9068 69.7584 11.0748 69.6688 11.2531Z" fill="#233650"/>
<path d="M17.8555 27.7449C15.0106 27.7454 12.1824 27.746 9.35419 27.7464C9.07212 27.7464 9.06646 27.7405 9.06643 27.4621C9.06639 21.0049 9.06639 14.5478 9.06646 8.09063C9.0665 7.79254 9.08286 7.77649 9.38797 7.77653C12.2389 7.77693 15.0898 7.77394 17.9407 7.78307C18.2495 7.78406 18.5571 7.86961 18.867 7.89081C19.2937 7.91998 19.6979 8.03794 20.1036 8.15733C20.4599 8.26224 20.8213 8.35164 21.1727 8.47066C21.3737 8.53876 21.5642 8.6436 21.7509 8.74714C22.2695 9.03463 22.8043 9.29939 23.2939 9.6305C23.8534 10.0089 24.315 10.5055 24.7692 11.0081C25.2295 11.5173 25.5938 12.0884 25.928 12.6789C26.1134 13.0064 26.2467 13.365 26.3851 13.7169C26.5145 14.0461 26.6408 14.3793 26.7296 14.7207C26.8275 15.097 26.9013 15.4822 26.9495 15.868C27.0233 16.4574 27.0831 17.0498 27.1156 17.6427C27.1354 18.0033 27.1067 18.3686 27.0747 18.7295C27.0368 19.1578 26.993 19.5876 26.9126 20.0093C26.8399 20.3906 26.7268 20.7658 26.6086 21.1363C26.511 21.4421 26.3946 21.744 26.2598 22.0353C26.0825 22.4182 25.895 22.7983 25.6833 23.1629C25.2909 23.839 24.7847 24.4312 24.2301 24.9764C23.6593 25.5375 23.034 26.0352 22.3168 26.4037C21.8966 26.6197 21.4767 26.837 21.0488 27.0369C20.8772 27.117 20.6842 27.151 20.5014 27.2075C20.3618 27.2506 20.224 27.3004 20.0833 27.3393C19.7898 27.4205 19.4966 27.5046 19.1997 27.5713C19.0412 27.6069 18.8747 27.6048 18.7127 27.6262C18.4322 27.6631 18.1523 27.705 17.8555 27.7449ZM17.6345 27.6462C17.9202 27.612 18.207 27.5849 18.4913 27.5419C18.8813 27.483 19.2742 27.4316 19.6572 27.3405C20.0282 27.2523 20.3931 27.1315 20.7517 27.0003C21.1471 26.8557 21.5402 26.6992 21.9195 26.5171C22.213 26.3761 22.4801 26.1811 22.7652 26.0214C23.3101 25.7163 23.7715 25.3038 24.2081 24.8689C24.7053 24.3737 25.1716 23.8448 25.5212 23.2302C25.7551 22.8193 25.9729 22.3981 26.1752 21.9707C26.2947 21.7184 26.3799 21.4483 26.4629 21.1808C26.5897 20.7721 26.711 20.3611 26.8147 19.9461C26.8581 19.7725 26.8219 19.5777 26.8723 19.4074C26.9856 19.0245 26.9977 18.6362 26.9916 18.2443C26.9833 17.7054 26.9791 17.1663 26.9553 16.628C26.9449 16.3926 26.8948 16.1583 26.8549 15.9249C26.7952 15.5752 26.7338 15.2256 26.6628 14.878C26.628 14.7075 26.5791 14.5384 26.5204 14.3744C26.4006 14.0399 26.2748 13.7073 26.1421 13.3776C26.054 13.1587 25.9705 12.9336 25.8483 12.7336C25.575 12.2861 25.3153 11.8222 24.9827 11.4208C24.5539 10.9033 24.0593 10.4401 23.5924 9.95405C23.5771 9.93807 23.5556 9.92774 23.5364 9.91568C23.1302 9.66026 22.7285 9.39741 22.316 9.15273C22.0939 9.021 21.8564 8.91343 21.6201 8.80774C21.3699 8.69578 21.1151 8.59285 20.8581 8.49738C20.6276 8.4118 20.3942 8.33116 20.157 8.26773C19.908 8.20117 19.6498 8.16906 19.401 8.10185C18.8636 7.95662 18.3115 7.8876 17.762 7.88406C15.1213 7.86715 12.4804 7.87588 9.83946 7.8739C9.68101 7.8738 9.52246 7.86129 9.36411 7.85168C9.24175 7.84425 9.16128 7.86889 9.18967 8.02124C9.20409 8.09844 9.19949 8.17963 9.19949 8.259C9.19986 14.5914 9.19986 20.9238 9.19942 27.2562C9.19942 27.3412 9.20208 27.4276 9.18824 27.5109C9.16428 27.6549 9.24366 27.6775 9.35641 27.6719C9.52052 27.6638 9.68463 27.6492 9.84874 27.649C12.4328 27.647 15.0169 27.6468 17.6345 27.6462Z" fill="#233650"/>
<path d="M81.9069 27.7475C79.8562 27.7476 77.8228 27.7476 75.789 27.7476C75.4959 27.7476 75.469 27.7213 75.469 27.4267C75.4687 20.9737 75.4687 14.5208 75.469 8.06786C75.469 7.80188 75.4946 7.77635 75.7621 7.77639C78.8807 7.77676 81.9993 7.77448 85.1179 7.78293C85.4103 7.78371 85.7028 7.84929 85.9945 7.8907C86.3582 7.94234 86.727 7.97475 87.0821 8.06241C87.4355 8.14966 87.7805 8.28003 88.1179 8.41943C88.4192 8.544 88.7164 8.68746 88.9945 8.85658C89.5749 9.20903 90.1097 9.61762 90.4788 10.2067C90.7068 10.5706 90.9049 10.9429 91.0337 11.3593C91.168 11.7923 91.2041 12.2375 91.2593 12.6782C91.291 12.9286 91.1973 13.1929 91.1751 13.4523C91.1359 13.9115 90.9802 14.3361 90.7791 14.741C90.4406 15.4217 89.9757 16.0024 89.3186 16.4044C89.0501 16.5688 88.7695 16.7189 88.4809 16.8446C88.2191 16.9586 87.9386 17.0303 87.667 17.1221C87.6489 17.1283 87.6353 17.1477 87.594 17.1825C87.669 17.2059 87.7191 17.2226 87.7702 17.2371C88.1721 17.3517 88.5896 17.4286 88.9713 17.5906C89.3415 17.7477 89.6942 17.9658 90.018 18.2061C90.2883 18.4065 90.5354 18.6554 90.7392 18.9235C90.9976 19.263 91.2368 19.6271 91.4188 20.0116C91.593 20.3789 91.6932 20.783 91.805 21.177C91.8489 21.332 91.8469 21.5031 91.8472 21.6669C91.8483 22.1248 91.8564 22.5839 91.8282 23.0403C91.8104 23.3246 91.7712 23.6202 91.6714 23.884C91.486 24.3728 91.29 24.8589 90.9659 25.2854C90.4652 25.9445 89.8408 26.4408 89.1131 26.8245C88.6618 27.0627 88.1922 27.2439 87.7 27.3726C87.4437 27.4396 87.1942 27.5384 86.9352 27.5884C86.5746 27.6579 86.2082 27.7341 85.8435 27.7393C84.5371 27.7576 83.2304 27.7471 81.9069 27.7475ZM89.5381 16.1411C89.6165 16.0763 89.6976 16.0141 89.773 15.946C90.169 15.5885 90.458 15.1517 90.6983 14.6808C90.7566 14.5661 90.7965 14.4404 90.8336 14.3164C90.9178 14.0368 91.035 13.7592 91.065 13.4732C91.1063 13.0776 91.2044 12.6759 91.0797 12.2746C91.062 12.2175 91.0858 12.1485 91.0742 12.0882C91.017 11.7952 90.9819 11.4938 90.8858 11.2137C90.7934 10.9448 90.6622 10.6798 90.4999 10.4465C90.2726 10.1191 90.0371 9.7806 89.7385 9.52362C89.3786 9.21322 88.955 8.97328 88.547 8.72226C88.3374 8.59318 88.1077 8.49005 87.8759 8.40505C87.6663 8.32822 87.4427 8.28848 87.2239 8.23865C86.8742 8.159 86.5252 8.07308 86.1721 8.01221C85.9611 7.97587 85.7423 7.98664 85.5279 7.96861C85.0658 7.92979 84.6043 7.85185 84.1421 7.84994C81.393 7.83859 78.6435 7.84428 75.8944 7.84435C75.6009 7.84435 75.6006 7.84455 75.6006 8.13698C75.6006 14.55 75.6006 20.963 75.6006 27.376C75.6006 27.6795 75.6006 27.6795 75.9005 27.6795C78.9223 27.6796 81.9444 27.6885 84.9662 27.6719C85.5576 27.6686 86.1503 27.5825 86.7382 27.5031C87.0429 27.462 87.3401 27.3581 87.6376 27.2715C87.9727 27.1739 88.3162 27.0908 88.6342 26.9518C88.9625 26.8085 89.2593 26.596 89.5787 26.4309C89.9219 26.2536 90.2147 26.0119 90.4618 25.7257C90.7266 25.4196 90.9996 25.1052 91.1847 24.7503C91.3854 24.3648 91.4965 23.9311 91.6332 23.514C91.8493 22.8546 91.7699 22.1739 91.7283 21.5036C91.7072 21.1607 91.5957 20.8168 91.4822 20.4881C91.3595 20.133 91.2211 19.7745 91.0282 19.4545C90.716 18.9369 90.2914 18.5109 89.8023 18.1491C89.4348 17.8773 89.0276 17.6865 88.5988 17.548C88.2402 17.4321 87.8663 17.3633 87.502 17.2649C87.4427 17.249 87.3963 17.1871 87.3439 17.1465C87.4015 17.1129 87.4557 17.06 87.5173 17.0489C87.8793 16.984 88.2273 16.8751 88.5545 16.7101C88.8854 16.543 89.2338 16.4036 89.5381 16.1411Z" fill="#233650"/>
<path d="M50.2385 7.77051C50.3472 7.91662 50.2293 8.04297 50.187 8.16325C49.974 8.77105 49.746 9.3736 49.52 9.97677C49.3141 10.5263 49.1004 11.073 48.897 11.6234C48.7402 12.047 48.5987 12.4763 48.4416 12.8998C48.2807 13.3338 48.1062 13.7628 47.9433 14.1962C47.836 14.4818 47.7422 14.7724 47.6366 15.0586C47.4764 15.4929 47.3094 15.9248 47.1478 16.3586C47.0374 16.655 46.9317 16.9533 46.822 17.2499C46.6594 17.6893 46.4944 18.1277 46.3319 18.5671C46.1771 18.9858 46.0251 19.4056 45.8704 19.8242C45.7058 20.2688 45.5377 20.7121 45.3738 21.1568C45.2174 21.5809 45.0667 22.0068 44.9096 22.4306C44.7487 22.8646 44.5797 23.2955 44.4215 23.7305C44.3486 23.9311 44.291 24.1374 44.2307 24.3423C44.2037 24.4344 44.1581 24.4731 44.0718 24.4132C43.4239 23.9632 42.7842 23.5003 42.3823 22.797C42.1645 22.4157 41.9318 22.0326 41.7893 21.6213C41.6482 21.2143 41.5497 20.7773 41.6059 20.3344C41.6253 20.1802 41.6932 20.0316 41.7426 19.8817C41.9048 19.3877 42.0705 18.8946 42.232 18.4003C42.3479 18.0459 42.457 17.6892 42.5739 17.3351C42.6867 16.9921 42.8077 16.6518 42.9215 16.3091C43.0299 15.9822 43.1328 15.6535 43.2402 15.3262C43.3578 14.9673 43.4788 14.6093 43.5971 14.2504C43.7027 13.9285 43.8063 13.6057 43.9116 13.2835C44.0326 12.9131 44.1547 12.543 44.276 12.1727C44.3833 11.8449 44.4893 11.5167 44.5967 11.1889C44.7184 10.8183 44.8424 10.4485 44.9628 10.0773C45.0773 9.72258 45.184 9.36501 45.3022 9.01144C45.4386 8.60459 45.5838 8.20074 45.7364 7.787C45.8043 7.77709 45.8612 7.7746 45.9178 7.77453C47.3581 7.77303 48.7981 7.7718 50.2385 7.77051ZM42.9849 16.4845C42.9594 16.5392 42.9256 16.5916 42.9096 16.649C42.8527 16.851 42.8087 17.0568 42.7474 17.2573C42.6679 17.516 42.5776 17.7712 42.4907 18.0274C42.4338 18.1959 42.3759 18.3643 42.3155 18.5317C42.2426 18.7349 42.1591 18.9347 42.0947 19.1405C42.0323 19.3412 41.9894 19.5479 41.9358 19.7514C41.9304 19.772 41.9079 19.7877 41.8997 19.8082C41.8697 19.8848 41.8408 19.962 41.8145 20.0401C41.7968 20.0927 41.7845 20.1471 41.7692 20.2006C41.7406 20.3006 41.685 20.4013 41.6881 20.5003C41.6976 20.814 41.8687 21.1052 41.8278 21.4284C41.8275 21.4336 41.8305 21.4394 41.8329 21.4446C41.912 21.6374 41.9788 21.8363 42.0725 22.0215C42.2293 22.3308 42.3714 22.6555 42.5783 22.9291C42.8172 23.2451 43.1076 23.5264 43.3994 23.7971C43.6141 23.9963 43.867 24.1541 44.0909 24.3213C44.1615 24.1436 44.2249 23.9885 44.2845 23.8319C44.3649 23.6209 44.4437 23.4091 44.5207 23.1969C44.5814 23.0303 44.6397 22.863 44.6969 22.6953C44.7572 22.5188 44.809 22.3392 44.8755 22.1652C44.9437 21.9864 45.0299 21.8146 45.0998 21.6364C45.187 21.4136 45.2668 21.1877 45.3482 20.9626C45.4045 20.8063 45.461 20.65 45.5125 20.4921C45.5725 20.3092 45.6226 20.1229 45.6857 19.9412C45.7617 19.7217 45.8469 19.5054 45.9287 19.2879C45.9423 19.2517 45.96 19.217 45.974 19.1811C46.0043 19.1054 46.0357 19.0302 46.0616 18.9531C46.0756 18.9111 46.0715 18.8622 46.0892 18.8225C46.1649 18.6522 46.2576 18.4884 46.322 18.3141C46.3884 18.1342 46.4293 17.9449 46.4825 17.76C46.4869 17.7443 46.5006 17.7315 46.5071 17.7162C46.5854 17.5299 46.669 17.3454 46.7395 17.1563C46.8036 16.9854 46.8516 16.8086 46.9096 16.6355C46.9535 16.5051 46.9999 16.3757 47.0486 16.2471C47.1281 16.0359 47.2102 15.8257 47.291 15.6151C47.3046 15.5789 47.3165 15.5417 47.3315 15.5059C47.4065 15.3256 47.4893 15.1481 47.5561 14.9649C47.6188 14.7933 47.6635 14.6153 47.7197 14.4411C47.7565 14.3264 47.7947 14.2118 47.8411 14.1005C47.912 13.9291 47.9938 13.7621 48.0643 13.5903C48.1277 13.4363 48.1867 13.2801 48.2381 13.1219C48.2981 12.9391 48.3411 12.7507 48.4034 12.5688C48.4818 12.3404 48.5718 12.116 48.6577 11.89C48.6676 11.8643 48.6839 11.8412 48.6945 11.8156C48.7269 11.7358 48.7593 11.6559 48.7886 11.575C48.8036 11.5335 48.808 11.488 48.8244 11.4472C48.9017 11.2539 48.9869 11.0635 49.0592 10.8682C49.1202 10.7026 49.1618 10.5297 49.2221 10.3637C49.3012 10.1469 49.3932 9.93495 49.474 9.71879C49.5306 9.56781 49.5745 9.41211 49.6301 9.26072C49.7126 9.03659 49.8005 8.81461 49.885 8.59133C49.9399 8.44624 49.9794 8.29327 50.0503 8.15667C50.1427 7.97899 50.096 7.8701 49.8929 7.86972C48.6038 7.8672 47.3145 7.86638 46.0255 7.87357C45.9488 7.87402 45.8373 7.92933 45.8029 7.99229C45.7249 8.13601 45.685 8.3005 45.6287 8.45619C45.6137 8.4978 45.5933 8.53751 45.5783 8.57906C45.5497 8.65656 45.5217 8.73424 45.4965 8.81283C45.4798 8.8657 45.4706 8.92101 45.4536 8.97388C45.4236 9.06798 45.3891 9.16079 45.3585 9.25472C45.3445 9.29719 45.3384 9.34241 45.3227 9.38406C45.248 9.58151 45.1615 9.77506 45.0974 9.97585C45.0323 10.1812 44.9887 10.3935 44.9338 10.6024C44.9283 10.6235 44.9089 10.6406 44.9011 10.6614C44.8274 10.8579 44.7463 11.0523 44.684 11.2525C44.6195 11.4577 44.5742 11.6687 44.5197 11.8769C44.5156 11.8925 44.4989 11.9046 44.4931 11.9201C44.4181 12.1216 44.3367 12.3211 44.2722 12.5259C44.2095 12.7246 44.1645 12.9289 44.1114 13.1306C44.1086 13.141 44.0974 13.149 44.0936 13.1593C44.0599 13.251 44.0265 13.3426 43.9945 13.4348C43.9781 13.4817 43.9658 13.5301 43.9491 13.5769C43.9198 13.6588 43.8864 13.7392 43.8595 13.8218C43.8438 13.8692 43.8421 13.9211 43.8268 13.9687C43.7937 14.0721 43.7559 14.1739 43.7208 14.2765C43.7078 14.3134 43.6979 14.3511 43.6846 14.3879C43.6523 14.48 43.6182 14.5716 43.5855 14.6636C43.5667 14.7155 43.5497 14.7679 43.5316 14.8199C43.5043 14.8977 43.4747 14.9746 43.4505 15.0532C43.4338 15.1064 43.4311 15.1641 43.4113 15.2157C43.3377 15.4102 43.2494 15.5999 43.1853 15.7975C43.1141 16.0165 43.0633 16.2421 42.9849 16.4845Z" fill="#FEF9E6"/>
<path d="M50.2302 7.75442C48.7919 7.77061 47.3519 7.77184 45.9115 7.77334C45.8549 7.77341 45.798 7.77589 45.7261 7.77542C45.7094 7.68196 45.7541 7.63762 45.8457 7.64007C45.874 7.64082 45.9023 7.63929 45.9306 7.63929C47.2909 7.63926 48.6508 7.63864 50.0107 7.64079C50.0932 7.64089 50.2029 7.60333 50.2302 7.75442Z" fill="#FEF9E6"/>
<path d="M17.6174 27.6453C15.0165 27.6459 12.4325 27.6461 9.84839 27.6481C9.68428 27.6483 9.52014 27.6629 9.35606 27.671C9.24332 27.6766 9.16394 27.6541 9.18787 27.51C9.2017 27.4268 9.19908 27.3403 9.19908 27.2553C9.19952 20.9229 9.19952 14.5905 9.19915 8.25811C9.19915 8.17873 9.20371 8.09754 9.18933 8.02034C9.16091 7.86799 9.24141 7.84335 9.36377 7.85078C9.52212 7.86039 9.68067 7.8729 9.83912 7.873C12.48 7.87498 15.1209 7.86625 17.7617 7.88316C18.3111 7.8867 18.8632 7.95572 19.4007 8.10095C19.6494 8.16816 19.9076 8.2003 20.1566 8.26683C20.3939 8.33026 20.6273 8.4109 20.8577 8.49648C21.1148 8.59195 21.3695 8.69488 21.6198 8.80684C21.856 8.91253 22.0935 9.0201 22.3156 9.15183C22.7282 9.39651 23.1299 9.65936 23.536 9.91478C23.5552 9.92684 23.5767 9.93717 23.5921 9.95319C24.059 10.4392 24.5535 10.9024 24.9824 11.42C25.3149 11.8213 25.5746 12.2852 25.8479 12.7327C25.9701 12.9327 26.0537 13.1578 26.1418 13.3767C26.2745 13.7064 26.4003 14.039 26.52 14.3735C26.5787 14.5375 26.6276 14.7066 26.6625 14.8771C26.7334 15.2247 26.7948 15.5743 26.8545 15.924C26.8944 16.1575 26.9446 16.3917 26.955 16.6271C26.9788 17.1654 26.9829 17.7045 26.9913 18.2434C26.9973 18.6353 26.9853 19.0236 26.8719 19.4065C26.8215 19.5768 26.8578 19.7716 26.8144 19.9452C26.7106 20.3602 26.5893 20.7712 26.4625 21.1799C26.3795 21.4474 26.2943 21.7175 26.1749 21.9698C25.9725 22.3972 25.7547 22.8184 25.5209 23.2293C25.1713 23.8439 24.705 24.3728 24.2078 24.868C23.7711 25.3029 23.3097 25.7154 22.7649 26.0205C22.4797 26.1802 22.2126 26.3752 21.9192 26.5162C21.5398 26.6983 21.1468 26.8548 20.7513 26.9995C20.3927 27.1306 20.0278 27.2514 19.6569 27.3396C19.2739 27.4307 18.881 27.4821 18.491 27.541C18.2066 27.584 17.9199 27.6111 17.6174 27.6453ZM22.3845 16.1167C22.2421 15.6569 22.1327 15.1834 21.9485 14.7411C21.7313 14.2197 21.4393 13.7358 21.0522 13.3093C20.6558 12.8728 20.228 12.4769 19.7144 12.1917C18.862 11.7182 17.9477 11.4719 16.963 11.4859C15.9071 11.5009 14.8508 11.489 13.7946 11.4892C13.5396 11.4893 13.5312 11.4987 13.5312 11.7619C13.5313 12.9487 13.5313 14.1354 13.5313 15.3222C13.5313 18.1216 13.5312 20.9209 13.5313 23.7203C13.5313 23.9696 13.5526 23.9968 13.7614 23.9988C14.9758 24.01 16.1903 24.0341 17.4046 24.0255C18.1815 24.0201 18.9191 23.8031 19.6056 23.4464C20.5325 22.9648 21.2273 22.2389 21.7241 21.323C22.282 20.2943 22.5326 19.1853 22.5547 18.0232C22.5667 17.3929 22.5173 16.7648 22.3845 16.1167Z" fill="#233650"/>
<path d="M89.5224 16.1482C89.2269 16.4025 88.8786 16.542 88.5477 16.709C88.2205 16.874 87.8725 16.983 87.5105 17.0479C87.4488 17.0589 87.3946 17.1118 87.337 17.1454C87.3895 17.1861 87.4359 17.2479 87.4952 17.2639C87.8595 17.3623 88.2334 17.4311 88.592 17.5469C89.0207 17.6854 89.428 17.8762 89.7954 18.1481C90.2845 18.5098 90.7092 18.9359 91.0214 19.4535C91.2143 19.7734 91.3527 20.132 91.4754 20.487C91.5889 20.8157 91.7003 21.1596 91.7215 21.5025C91.7634 22.1728 91.8425 22.8536 91.6264 23.5129C91.4897 23.93 91.3786 24.3637 91.1779 24.7493C90.9928 25.1041 90.7198 25.4186 90.455 25.7246C90.2079 26.0108 89.9151 26.2526 89.5719 26.4298C89.2525 26.5949 88.9556 26.8074 88.6274 26.9507C88.3094 27.0898 87.9659 27.1728 87.6308 27.2704C87.3333 27.357 87.0361 27.4609 86.7314 27.5021C86.1435 27.5814 85.5508 27.6675 84.9594 27.6708C81.9376 27.6874 78.9155 27.6785 75.8937 27.6785C75.5938 27.6785 75.5938 27.6784 75.5938 27.375C75.5938 20.9619 75.5938 14.5489 75.5938 8.13591C75.5938 7.84348 75.5941 7.84327 75.8875 7.84327C78.6367 7.84324 81.3862 7.83751 84.1353 7.84886C84.5975 7.85077 85.0589 7.92872 85.5211 7.96754C85.7355 7.98557 85.9543 7.9748 86.1653 8.01113C86.5184 8.072 86.8674 8.15792 87.2171 8.23761C87.4359 8.28741 87.6595 8.32715 87.8691 8.404C88.1008 8.48897 88.3306 8.59211 88.5402 8.72118C88.9482 8.9722 89.3718 9.21215 89.7317 9.52254C90.0303 9.77956 90.2658 10.118 90.4935 10.4454C90.6554 10.6788 90.7866 10.9437 90.8789 11.2126C90.9751 11.4927 91.0102 11.7941 91.0674 12.0871C91.079 12.1474 91.0552 12.2164 91.0729 12.2735C91.1976 12.6748 91.0995 13.0765 91.0582 13.4721C91.0282 13.7582 90.911 14.0357 90.8268 14.3154C90.7897 14.4393 90.7498 14.565 90.6915 14.6797C90.4512 15.1507 90.1622 15.5875 89.7661 15.945C89.6908 16.0131 89.6097 16.0752 89.5224 16.1482ZM79.924 21.2884C79.924 22.1686 79.9237 23.0487 79.9237 23.9289C79.9237 24.1531 79.9397 24.1686 80.168 24.1687C81.3776 24.1688 82.5872 24.1618 83.7965 24.1714C84.4103 24.1762 85.0136 24.1115 85.5845 23.8909C85.8912 23.7724 86.2069 23.6176 86.4478 23.4008C87.0354 22.872 87.2668 22.1868 87.1833 21.3943C87.0903 20.5068 86.6043 19.906 85.8146 19.5523C85.3101 19.3264 84.7662 19.228 84.2082 19.2285C82.8568 19.2296 81.5054 19.2278 80.1541 19.2277C79.9444 19.2277 79.924 19.249 79.9237 19.4657C79.9233 20.0619 79.924 20.6581 79.924 21.2884ZM85.7542 15.4291C86.0794 15.1914 86.3227 14.8795 86.4526 14.5066C86.6929 13.8162 86.6861 13.1265 86.3302 12.4647C86.1397 12.1104 85.8694 11.8238 85.516 11.6432C85.0719 11.4164 84.5896 11.3178 84.0865 11.3194C82.7805 11.3235 81.4744 11.3204 80.1684 11.3204C79.9421 11.3204 79.9237 11.3381 79.9237 11.5613C79.9233 12.9413 79.9233 14.3212 79.924 15.7012C79.924 15.9589 79.9492 15.9832 80.2072 15.9833C81.2635 15.9836 82.32 15.989 83.3759 15.9803C83.7382 15.9773 84.1012 15.9512 84.4615 15.9127C84.9223 15.8634 85.3681 15.7565 85.7542 15.4291Z" fill="#233650"/>
<path d="M42.9228 16.4824C42.9932 16.2444 43.0452 16.0136 43.1181 15.7894C43.1837 15.5873 43.274 15.3932 43.3493 15.1941C43.3695 15.1413 43.3723 15.0823 43.3894 15.0279C43.4142 14.9475 43.4445 14.8688 43.4724 14.7892C43.4909 14.736 43.5083 14.6824 43.5275 14.6292C43.561 14.5351 43.5959 14.4414 43.629 14.3471C43.6426 14.3095 43.6527 14.2709 43.666 14.2332C43.7019 14.1282 43.7406 14.024 43.7744 13.9182C43.7901 13.8695 43.7919 13.8164 43.8079 13.7679C43.8355 13.6833 43.8696 13.6011 43.8996 13.5173C43.9167 13.4694 43.9293 13.4199 43.946 13.3719C43.9788 13.2776 44.013 13.1838 44.0475 13.0901C44.0513 13.0795 44.0628 13.0713 44.0656 13.0606C44.12 12.8543 44.1661 12.6452 44.2302 12.4419C44.2961 12.2324 44.3795 12.0283 44.4562 11.8221C44.4622 11.8062 44.4792 11.7939 44.4834 11.7778C44.5392 11.5648 44.586 11.3489 44.6515 11.1389C44.7153 10.9341 44.7983 10.7352 44.8737 10.5342C44.8817 10.5128 44.9016 10.4953 44.9075 10.4738C44.9633 10.26 45.0079 10.0428 45.0745 9.83266C45.1401 9.62721 45.2287 9.42916 45.3051 9.22713C45.3211 9.18452 45.3274 9.13824 45.3417 9.09479C45.3731 8.99867 45.4083 8.90371 45.439 8.80739C45.4564 8.75333 45.4658 8.6967 45.4829 8.64264C45.5087 8.56222 45.5373 8.48274 45.5666 8.40344C45.5823 8.36093 45.6029 8.3203 45.6182 8.27772C45.6761 8.11841 45.7166 7.95011 45.7964 7.80304C45.8317 7.73859 45.9457 7.68203 46.0242 7.68157C47.3431 7.67421 48.6624 7.67505 49.9814 7.67763C50.1892 7.67802 50.237 7.78944 50.1425 7.97124C50.0699 8.11102 50.0295 8.2675 49.9733 8.41599C49.8869 8.64445 49.7969 8.87159 49.7125 9.10092C49.6556 9.25584 49.6106 9.41514 49.5531 9.56963C49.4701 9.79077 49.3759 10.0077 49.295 10.2296C49.2333 10.3994 49.1908 10.5763 49.1283 10.7457C49.0544 10.9455 48.9672 11.1403 48.8881 11.3382C48.8713 11.3799 48.8668 11.4265 48.8514 11.4689C48.8214 11.5517 48.7883 11.6335 48.7552 11.7152C48.7444 11.7413 48.7276 11.765 48.7175 11.7913C48.6296 12.0225 48.5376 12.2521 48.4574 12.4859C48.3939 12.672 48.3496 12.8646 48.2882 13.0517C48.2356 13.2136 48.1752 13.3734 48.1104 13.531C48.0385 13.7068 47.9545 13.8777 47.8819 14.0531C47.8348 14.1669 47.7954 14.2843 47.7578 14.4016C47.7002 14.5798 47.6545 14.762 47.5904 14.9376C47.522 15.125 47.4376 15.3066 47.3606 15.4911C47.3452 15.5277 47.3334 15.5657 47.3191 15.6029C47.2364 15.8184 47.1524 16.0335 47.0711 16.2495C47.0216 16.3811 46.9738 16.5135 46.9292 16.6469C46.8695 16.8241 46.8204 17.0049 46.7548 17.1798C46.6826 17.3734 46.5972 17.5621 46.5169 17.7527C46.5103 17.7684 46.4964 17.7815 46.4918 17.7975C46.4374 17.9867 46.3956 18.1805 46.3276 18.3645C46.2617 18.5428 46.1672 18.7104 46.0894 18.8847C46.0713 18.9253 46.0754 18.9754 46.0611 19.0184C46.0346 19.0972 46.0025 19.1742 45.9719 19.2516C45.9572 19.2884 45.9391 19.3239 45.9251 19.361C45.8414 19.5835 45.7542 19.8048 45.6765 20.0294C45.612 20.2153 45.5607 20.4059 45.4993 20.5931C45.4466 20.7546 45.3888 20.9146 45.3312 21.0745C45.2479 21.3048 45.1666 21.5359 45.077 21.7639C45.0055 21.9463 44.9173 22.1221 44.8475 22.305C44.7795 22.4831 44.7265 22.6669 44.6648 22.8474C44.6062 23.019 44.5465 23.1903 44.4845 23.3607C44.4057 23.5778 44.3251 23.7945 44.2428 24.0104C44.1818 24.1706 44.1169 24.3293 44.0447 24.5112C43.8156 24.3401 43.5568 24.1786 43.3371 23.9748C43.0386 23.6979 42.7414 23.41 42.497 23.0867C42.2853 22.8066 42.1399 22.4744 41.9798 22.158C41.8835 21.9685 41.8152 21.765 41.7343 21.5677C41.7322 21.5624 41.7287 21.5564 41.7294 21.5512C41.7709 21.2204 41.5958 20.9224 41.5861 20.6014C41.5829 20.5001 41.6401 20.3971 41.6691 20.2948C41.6848 20.2401 41.6973 20.1844 41.7154 20.1306C41.7423 20.0507 41.7719 19.9717 41.803 19.8933C41.811 19.8723 41.834 19.8562 41.8396 19.8352C41.8944 19.6269 41.9383 19.4154 42.0025 19.2101C42.068 18.9995 42.1535 18.7951 42.2281 18.5872C42.2898 18.4158 42.3491 18.2436 42.4074 18.0712C42.4963 17.809 42.589 17.5478 42.67 17.2832C42.7327 17.078 42.7777 16.8675 42.836 16.6608C42.8523 16.602 42.8869 16.5484 42.9228 16.4824Z" fill="#FEF9E6"/>
<path d="M50.1538 7.89765C50.1487 7.89022 50.159 7.90509 50.1538 7.89765V7.89765Z" fill="#FEF9E6"/>
</g>
<path d="M38.0453 33.3614H40.5956C41.4495 33.3614 42.19 33.5201 42.8171 33.8374C43.4443 34.1548 43.9241 34.6082 44.2566 35.1976C44.5967 35.787 44.7667 36.4821 44.7667 37.2831C44.7667 38.5979 44.3851 39.5953 43.6219 40.2754C42.8663 40.9479 41.8046 41.2842 40.4369 41.2842H38.0453V33.3614ZM40.4256 40.3207C41.4835 40.3207 42.2769 40.0601 42.8058 39.5387C43.3348 39.0173 43.5992 38.2654 43.5992 37.2831C43.5992 36.3764 43.3385 35.6585 42.8171 35.1296C42.3033 34.6006 41.5666 34.3361 40.6069 34.3361H39.2015V40.3207H40.4256ZM46.4683 33.3614H47.6357V41.2842H46.4683V33.3614ZM53.5342 41.4542C52.7181 41.4542 51.9927 41.2842 51.3579 40.9441C50.7232 40.6041 50.2283 40.1243 49.8731 39.5047C49.518 38.8775 49.3404 38.1521 49.3404 37.3284C49.3404 36.5048 49.518 35.7794 49.8731 35.1522C50.2283 34.5251 50.7232 34.0415 51.3579 33.7014C51.9927 33.3614 52.7181 33.1914 53.5342 33.1914C54.6298 33.1914 55.5404 33.4634 56.2658 34.0075V35.1182C55.6084 34.5439 54.7318 34.2568 53.6362 34.2568C53.0392 34.2568 52.5027 34.3815 52.0267 34.6308C51.5506 34.8802 51.1766 35.2391 50.9046 35.7076C50.6401 36.1686 50.5078 36.7088 50.5078 37.3284C50.5078 37.9481 50.6401 38.4921 50.9046 38.9606C51.169 39.4291 51.5355 39.788 52.004 40.0374C52.4725 40.2867 53.0014 40.4114 53.5908 40.4114C54.2784 40.4114 54.8414 40.2716 55.2797 39.9921V37.9178H53.7722V36.9771H56.4358V40.6041C56.0806 40.8988 55.6613 41.1142 55.1776 41.2502C54.7016 41.3862 54.1538 41.4542 53.5342 41.4542ZM58.1339 33.3614H59.3014V41.2842H58.1339V33.3614ZM65.2011 33.3614H66.4026L68.1708 39.38L69.9163 33.3614H70.823L72.5572 39.38L74.3254 33.3614H75.5268L73.2146 41.2842H72.1152L70.3583 35.2996L68.6128 41.2842H67.5134L65.2011 33.3614ZM78.9669 33.3614H80.0777L83.24 41.2842H82.0612L81.2678 39.312H77.7655L76.9947 41.2842H75.8046L78.9669 33.3614ZM80.9505 38.3486L79.5223 34.6422L78.0942 38.3486H80.9505ZM84.9413 33.3614H88.1262C88.9726 33.3614 89.6224 33.5654 90.0758 33.9734C90.5292 34.3815 90.7558 34.9784 90.7558 35.7643C90.7558 36.3461 90.6009 36.8411 90.2911 37.2491C89.9813 37.6496 89.5431 37.9216 88.9763 38.0652L90.7218 41.2842H89.5204L87.8315 38.1559H86.0974V41.2842H84.9413V33.3614ZM87.9336 37.1811C88.4398 37.1811 88.8403 37.064 89.135 36.8297C89.4373 36.5879 89.5884 36.2328 89.5884 35.7643C89.5884 35.2505 89.441 34.884 89.1463 34.6648C88.8592 34.4457 88.4549 34.3361 87.9336 34.3361H86.0974V37.1811H87.9336ZM92.4565 33.3614H97.6817V34.3361H93.6127V36.8411H96.6503V37.8045H93.6127V40.3207H97.6817V41.2842H92.4565V33.3614ZM99.3298 33.3614H100.486V36.7617H104.623V33.3614H105.779V41.2842H104.623V37.7365H100.486V41.2842H99.3298V33.3614ZM111.653 41.4542C110.867 41.4542 110.157 41.2842 109.522 40.9441C108.887 40.5966 108.389 40.1092 108.026 39.482C107.663 38.8548 107.482 38.137 107.482 37.3284C107.482 36.5199 107.663 35.8021 108.026 35.1749C108.389 34.5477 108.887 34.0603 109.522 33.7128C110.157 33.3652 110.867 33.1914 111.653 33.1914C112.439 33.1914 113.149 33.3652 113.784 33.7128C114.418 34.0603 114.917 34.5477 115.28 35.1749C115.643 35.8021 115.824 36.5199 115.824 37.3284C115.824 38.137 115.643 38.8548 115.28 39.482C114.917 40.1092 114.418 40.5966 113.784 40.9441C113.149 41.2842 112.439 41.4542 111.653 41.4542ZM111.653 40.4114C112.212 40.4114 112.718 40.2867 113.172 40.0374C113.633 39.7805 113.995 39.4215 114.26 38.9606C114.524 38.4921 114.657 37.9481 114.657 37.3284C114.657 36.7164 114.524 36.1799 114.26 35.719C114.003 35.2505 113.648 34.8915 113.194 34.6422C112.741 34.3853 112.235 34.2568 111.676 34.2568C111.109 34.2568 110.595 34.3815 110.134 34.6308C109.681 34.8802 109.318 35.2391 109.046 35.7076C108.781 36.1761 108.649 36.7164 108.649 37.3284C108.649 37.9481 108.781 38.4921 109.046 38.9606C109.31 39.4215 109.669 39.7805 110.123 40.0374C110.584 40.2867 111.094 40.4114 111.653 40.4114ZM120.745 41.4542C119.665 41.4542 118.848 41.1784 118.297 40.6268C117.745 40.0676 117.469 39.3006 117.469 38.3259V33.3614H118.626V38.3712C118.626 39.0437 118.814 39.5538 119.192 39.9014C119.57 40.2414 120.088 40.4114 120.745 40.4114C121.395 40.4114 121.909 40.2414 122.287 39.9014C122.664 39.5538 122.853 39.0437 122.853 38.3712V33.3614H124.009V38.3259C124.009 39.2931 123.734 40.0563 123.182 40.6154C122.63 41.1746 121.818 41.4542 120.745 41.4542ZM128.081 41.4542C127.628 41.4542 127.179 41.4126 126.733 41.3295C126.294 41.254 125.935 41.1482 125.656 41.0122V39.9694C126.381 40.3094 127.163 40.4794 128.002 40.4794C129.181 40.4794 129.77 40.0827 129.77 39.2893C129.77 39.0173 129.706 38.7982 129.578 38.6319C129.449 38.4657 129.264 38.3221 129.022 38.2012C128.78 38.0727 128.388 37.899 127.843 37.6798C127.095 37.3776 126.555 37.0451 126.223 36.6824C125.89 36.3197 125.724 35.8625 125.724 35.3109C125.724 34.8953 125.837 34.5288 126.064 34.2115C126.291 33.8865 126.608 33.6372 127.016 33.4634C127.424 33.282 127.893 33.1914 128.422 33.1914C128.852 33.1914 129.241 33.2254 129.589 33.2934C129.937 33.3614 130.277 33.471 130.609 33.6221V34.6195C129.952 34.3248 129.287 34.1775 128.614 34.1775C128.07 34.1775 127.655 34.2757 127.367 34.4722C127.08 34.6686 126.937 34.9482 126.937 35.3109C126.937 35.5603 126.997 35.7718 127.118 35.9456C127.247 36.1119 127.432 36.263 127.673 36.399C127.923 36.5275 128.289 36.6899 128.773 36.8864C129.309 37.1055 129.733 37.3133 130.042 37.5098C130.352 37.7063 130.586 37.9481 130.745 38.2352C130.911 38.5148 130.994 38.8662 130.994 39.2893C130.994 39.9769 130.749 40.5097 130.258 40.8875C129.767 41.2653 129.041 41.4542 128.081 41.4542ZM132.689 33.3614H137.915V34.3361H133.846V36.8411H136.883V37.8045H133.846V40.3207H137.915V41.2842H132.689V33.3614Z" fill="#002937"/>
</svg>
