<svg width="140" height="47" viewBox="0 0 140 47" fill="none" xmlns="http://www.w3.org/2000/svg">
<mask id="mask0_199_13271" style="mask-type:luminance" maskUnits="userSpaceOnUse" x="0" y="0" width="99" height="31">
<path d="M98.7043 0H0V30.5384H98.7043V0Z" fill="white"/>
</mask>
<g mask="url(#mask0_199_13271)">
<path d="M61.8225 15.9563C62.2284 16.7481 62.6275 17.529 63.0314 18.3074C63.3317 18.8862 63.6408 19.4605 63.9414 20.0391C64.1371 20.4158 64.3303 20.7939 64.512 21.1774C64.5611 21.2808 64.5832 21.4064 64.5836 21.5218C64.588 23.4924 64.5866 25.463 64.5866 27.4336C64.5866 27.6959 64.5696 27.7124 64.3054 27.7124C63.0048 27.7124 61.7046 27.7124 60.404 27.7123C60.1558 27.7123 60.1296 27.6869 60.1293 27.4401C60.1293 25.6115 60.1115 23.7826 60.1429 21.9544C60.15 21.5375 60.0028 21.2113 59.8314 20.871C59.585 20.381 59.3317 19.8944 59.0822 19.4058C58.8143 18.8815 58.5464 18.3572 58.2809 17.8318C57.9565 17.19 57.6364 16.546 57.3106 15.9048C56.9923 15.279 56.6674 14.6568 56.3491 14.0311C56.0359 13.4148 55.7295 12.7949 55.4163 12.1786C54.9647 11.2906 54.509 10.4047 54.0567 9.51719C53.7977 9.0084 53.5424 8.49749 53.283 7.98891C53.2237 7.87323 53.2544 7.81706 53.3812 7.80902C53.4207 7.80653 53.4606 7.80742 53.5001 7.80742C54.7895 7.80728 56.0785 7.8096 57.3675 7.80445C57.5481 7.80373 57.6494 7.86004 57.7363 8.03008C58.344 9.22118 58.9677 10.404 59.5815 11.5921C59.8798 12.1699 60.1633 12.7554 60.4609 13.3336C60.8348 14.0597 61.2162 14.7818 61.5938 15.5059C61.6698 15.6514 61.7431 15.7982 61.8225 15.9563Z" fill="#233650"/>
<path d="M36.0015 21.7383C35.8004 21.1824 35.6023 20.6395 35.405 20.0964C35.1981 19.5267 34.9926 18.9563 34.7847 18.3869C34.6426 17.9984 34.497 17.6111 34.3535 17.2232C34.1525 16.6813 33.9503 16.1401 33.7515 15.5975C33.5255 14.9805 33.3028 14.3623 33.0784 13.7448C32.6835 12.6585 32.2907 11.5714 31.8924 10.4864C31.5995 9.68837 31.3 8.89281 31.0017 8.09683C30.9123 7.85829 30.9459 7.80689 31.205 7.80682C32.4659 7.80658 33.7268 7.80662 34.9878 7.80672C35.2233 7.80675 35.2615 7.84366 35.3413 8.06606C35.5962 8.77519 35.858 9.4819 36.116 10.1899C36.3218 10.7543 36.5243 11.3197 36.7308 11.8837C36.9742 12.549 37.2213 13.213 37.465 13.8781C37.7203 14.5752 37.9732 15.2731 38.2281 15.9703C38.4384 16.545 38.6524 17.1185 38.8614 17.6937C39.0645 18.253 39.2618 18.8144 39.465 19.3738C39.6078 19.7681 39.756 20.1605 39.9012 20.554C40.1054 21.1069 40.3099 21.6596 40.5123 22.2131C40.7755 22.9316 41.0369 23.6507 41.2986 24.3697C41.5468 25.0513 41.7932 25.7335 42.0423 26.4147C42.1712 26.7661 42.302 27.1167 42.4356 27.4662C42.5181 27.6816 42.5014 27.7121 42.2683 27.7123C41.0986 27.7131 39.9285 27.7125 38.7584 27.7124C38.6903 27.7124 38.6221 27.7135 38.5539 27.7123C38.1787 27.7052 38.2121 27.7921 38.0434 27.3223C37.8883 26.8904 37.725 26.4614 37.5676 26.0305C37.4135 25.6101 37.2636 25.1885 37.1095 24.7683C36.8576 24.0822 36.603 23.3972 36.3512 22.7112C36.2339 22.3919 36.1201 22.0713 36.0015 21.7383Z" fill="#233650"/>
<path d="M69.6688 11.2529C69.5045 11.5704 69.345 11.876 69.1895 12.1839C68.8555 12.8459 68.5242 13.5094 68.1906 14.1716C67.7008 15.143 67.2103 16.114 66.7196 17.0847C66.5713 17.378 66.4193 17.6693 66.2714 17.9627C66.2161 18.072 66.1159 18.0946 66.026 18.0532C65.7093 17.9075 65.3675 17.7889 65.0935 17.5827C64.4888 17.128 64.1395 16.4939 63.937 15.7654C63.8031 15.2838 63.7853 14.7933 63.7431 14.3035C63.7363 14.225 63.7693 14.1352 63.8065 14.062C64.1688 13.3499 64.5379 12.6413 64.9009 11.9296C65.1838 11.3744 65.4595 10.8157 65.7403 10.2595C66.1156 9.51712 66.4949 8.77698 66.8668 8.03288C66.9503 7.86563 67.06 7.80118 67.2533 7.80251C68.5423 7.81127 69.8317 7.80599 71.1207 7.80909C71.1946 7.80929 71.2683 7.843 71.3422 7.8611C71.3184 7.93124 71.3024 8.00524 71.2696 8.07088C71.0702 8.4705 70.8664 8.86791 70.6653 9.26668C70.4179 9.75727 70.1711 10.2483 69.9247 10.7394C69.8409 10.9066 69.7584 11.0745 69.6688 11.2529Z" fill="#233650"/>
<path d="M17.8555 27.7452C15.0106 27.7457 12.1824 27.7463 9.35419 27.7466C9.07212 27.7466 9.06646 27.7407 9.06643 27.4624C9.06639 21.0052 9.06639 14.548 9.06646 8.09088C9.0665 7.79279 9.08286 7.77674 9.38797 7.77677C12.2389 7.77718 15.0898 7.77418 17.9407 7.78331C18.2495 7.7843 18.5571 7.86985 18.867 7.89105C19.2937 7.92023 19.6979 8.03819 20.1036 8.15758C20.4599 8.26249 20.8213 8.35189 21.1727 8.4709C21.3737 8.539 21.5642 8.64384 21.7509 8.74739C22.2695 9.03488 22.8043 9.29963 23.2939 9.63075C23.8534 10.0091 24.315 10.5058 24.7692 11.0084C25.2295 11.5176 25.5938 12.0886 25.928 12.6791C26.1134 13.0066 26.2467 13.3653 26.3851 13.7172C26.5145 14.0463 26.6408 14.3795 26.7296 14.721C26.8275 15.0972 26.9013 15.4824 26.9495 15.8682C27.0233 16.4577 27.0831 17.05 27.1156 17.6429C27.1354 18.0035 27.1067 18.3688 27.0747 18.7298C27.0368 19.158 26.993 19.5879 26.9126 20.0096C26.8399 20.3908 26.7268 20.766 26.6086 21.1365C26.511 21.4423 26.3946 21.7443 26.2598 22.0356C26.0825 22.4185 25.895 22.7985 25.6833 23.1632C25.2909 23.8392 24.7847 24.4315 24.2301 24.9766C23.6593 25.5377 23.034 26.0354 22.3168 26.404C21.8966 26.6199 21.4767 26.8373 21.0488 27.0371C20.8772 27.1172 20.6842 27.1513 20.5014 27.2077C20.3618 27.2508 20.224 27.3006 20.0833 27.3396C19.7898 27.4208 19.4966 27.5049 19.1997 27.5716C19.0412 27.6071 18.8747 27.6051 18.7127 27.6264C18.4322 27.6634 18.1523 27.7053 17.8555 27.7452ZM17.6345 27.6464C17.9202 27.6122 18.207 27.5852 18.4913 27.5422C18.8813 27.4832 19.2742 27.4318 19.6572 27.3407C20.0282 27.2525 20.3931 27.1317 20.7517 27.0006C21.1471 26.8559 21.5402 26.6995 21.9195 26.5173C22.213 26.3763 22.4801 26.1813 22.7652 26.0216C23.3101 25.7166 23.7715 25.304 24.2081 24.8692C24.7053 24.374 25.1716 23.845 25.5212 23.2305C25.7551 22.8195 25.9729 22.3983 26.1752 21.971C26.2947 21.7187 26.3799 21.4486 26.4629 21.181C26.5897 20.7723 26.711 20.3613 26.8147 19.9464C26.8581 19.7728 26.8219 19.5779 26.8723 19.4077C26.9856 19.0248 26.9977 18.6365 26.9916 18.2445C26.9833 17.7057 26.9791 17.1665 26.9553 16.6283C26.9449 16.3928 26.8948 16.1586 26.8549 15.9252C26.7952 15.5754 26.7338 15.2258 26.6628 14.8783C26.628 14.7077 26.5791 14.5386 26.5204 14.3747C26.4006 14.0401 26.2748 13.7075 26.1421 13.3779C26.054 13.159 25.9705 12.9338 25.8483 12.7338C25.575 12.2863 25.3153 11.8225 24.9827 11.4211C24.5539 10.9035 24.0593 10.4404 23.5924 9.9543C23.5771 9.93831 23.5556 9.92799 23.5364 9.91592C23.1302 9.6605 22.7285 9.39765 22.316 9.15297C22.0939 9.02124 21.8564 8.91368 21.6201 8.80798C21.3699 8.69602 21.1151 8.59309 20.8581 8.49762C20.6276 8.41204 20.3942 8.3314 20.157 8.26797C19.908 8.20141 19.6498 8.1693 19.401 8.10209C18.8636 7.95686 18.3115 7.88785 17.762 7.8843C15.1213 7.8674 12.4804 7.87612 9.83946 7.87415C9.68101 7.87404 9.52246 7.86153 9.36411 7.85192C9.24175 7.84449 9.16128 7.86913 9.18967 8.02149C9.20409 8.09868 9.19949 8.17987 9.19949 8.25925C9.19986 14.5917 9.19986 20.924 9.19942 27.2564C9.19942 27.3415 9.20208 27.4279 9.18824 27.5112C9.16428 27.6552 9.24366 27.6778 9.35641 27.6722C9.52052 27.6641 9.68463 27.6494 9.84874 27.6493C12.4328 27.6472 15.0169 27.6471 17.6345 27.6464Z" fill="#233650"/>
<path d="M81.9069 27.7478C79.8562 27.7478 77.8228 27.7479 75.789 27.7478C75.4959 27.7478 75.469 27.7215 75.469 27.4269C75.4687 20.974 75.4687 14.521 75.469 8.06811C75.469 7.80212 75.4946 7.7766 75.7621 7.77663C78.8807 7.77701 81.9993 7.77472 85.1179 7.78317C85.4103 7.78396 85.7028 7.84953 85.9945 7.89094C86.3582 7.94258 86.727 7.97499 87.0821 8.06265C87.4355 8.14991 87.7805 8.28027 88.1179 8.41967C88.4192 8.54425 88.7164 8.6877 88.9945 8.85682C89.5749 9.20927 90.1097 9.61786 90.4788 10.2069C90.7068 10.5709 90.9049 10.9431 91.0337 11.3596C91.168 11.7926 91.2041 12.2378 91.2593 12.6785C91.291 12.9289 91.1973 13.1932 91.1751 13.4525C91.1359 13.9117 90.9802 14.3364 90.7791 14.7412C90.4406 15.4219 89.9757 16.0027 89.3186 16.4046C89.0501 16.5691 88.7695 16.7192 88.4809 16.8448C88.2191 16.9589 87.9386 17.0305 87.667 17.1224C87.6489 17.1286 87.6353 17.148 87.594 17.1827C87.669 17.2061 87.7191 17.2229 87.7702 17.2374C88.1721 17.3519 88.5896 17.4289 88.9713 17.5909C89.3415 17.7479 89.6942 17.9661 90.018 18.2064C90.2883 18.4068 90.5354 18.6556 90.7392 18.9237C90.9976 19.2633 91.2368 19.6273 91.4188 20.0118C91.593 20.3791 91.6932 20.7833 91.805 21.1772C91.8489 21.3322 91.8469 21.5033 91.8472 21.6671C91.8483 22.1251 91.8564 22.5841 91.8282 23.0406C91.8104 23.3249 91.7712 23.6204 91.6714 23.8842C91.486 24.373 91.29 24.8591 90.9659 25.2857C90.4652 25.9448 89.8408 26.4411 89.1131 26.8248C88.6618 27.0629 88.1922 27.2441 87.7 27.3729C87.4437 27.4399 87.1942 27.5386 86.9352 27.5886C86.5746 27.6582 86.2082 27.7344 85.8435 27.7395C84.5371 27.7578 83.2304 27.7474 81.9069 27.7478ZM89.5381 16.1414C89.6165 16.0765 89.6976 16.0144 89.773 15.9463C90.169 15.5888 90.458 15.152 90.6983 14.6811C90.7566 14.5663 90.7965 14.4406 90.8336 14.3167C90.9178 14.037 91.035 13.7595 91.065 13.4734C91.1063 13.0779 91.2044 12.6761 91.0797 12.2748C91.062 12.2177 91.0858 12.1488 91.0742 12.0885C91.017 11.7955 90.9819 11.4941 90.8858 11.2139C90.7934 10.945 90.6622 10.6801 90.4999 10.4467C90.2726 10.1194 90.0371 9.78085 89.7385 9.52386C89.3786 9.21347 88.955 8.97352 88.547 8.7225C88.3374 8.59343 88.1077 8.49029 87.8759 8.40529C87.6663 8.32847 87.4427 8.28873 87.2239 8.2389C86.8742 8.15925 86.5252 8.07332 86.1721 8.01245C85.9611 7.97612 85.7423 7.98689 85.5279 7.96886C85.0658 7.93004 84.6043 7.85209 84.1421 7.85018C81.393 7.83883 78.6435 7.84452 75.8944 7.84459C75.6009 7.84459 75.6006 7.8448 75.6006 8.13723C75.6006 14.5502 75.6006 20.9633 75.6006 27.3763C75.6006 27.6797 75.6006 27.6798 75.9005 27.6798C78.9223 27.6798 81.9444 27.6887 84.9662 27.6721C85.5576 27.6689 86.1503 27.5827 86.7382 27.5034C87.0429 27.4622 87.3401 27.3583 87.6376 27.2718C87.9727 27.1741 88.3162 27.0911 88.6342 26.952C88.9625 26.8087 89.2593 26.5963 89.5787 26.4312C89.9219 26.2539 90.2147 26.0121 90.4618 25.726C90.7266 25.4199 90.9996 25.1054 91.1847 24.7506C91.3854 24.3651 91.4965 23.9314 91.6332 23.5142C91.8493 22.8549 91.7699 22.1741 91.7283 21.5038C91.7072 21.1609 91.5957 20.817 91.4822 20.4884C91.3595 20.1332 91.2211 19.7748 91.0282 19.4548C90.716 18.9372 90.2914 18.5111 89.8023 18.1494C89.4348 17.8775 89.0276 17.6867 88.5988 17.5482C88.2402 17.4324 87.8663 17.3636 87.502 17.2652C87.4427 17.2492 87.3963 17.1874 87.3439 17.1467C87.4015 17.1132 87.4557 17.0602 87.5173 17.0492C87.8793 16.9843 88.2273 16.8754 88.5545 16.7103C88.8854 16.5433 89.2338 16.4039 89.5381 16.1414Z" fill="#233650"/>
<path d="M50.2385 7.77002C50.3472 7.91613 50.2293 8.04248 50.187 8.16276C49.974 8.77056 49.746 9.37311 49.52 9.97628C49.3141 10.5258 49.1004 11.0725 48.897 11.6229C48.7402 12.0465 48.5987 12.4758 48.4416 12.8993C48.2807 13.3334 48.1062 13.7623 47.9433 14.1957C47.836 14.4813 47.7422 14.7719 47.6366 15.0581C47.4764 15.4924 47.3094 15.9243 47.1478 16.3581C47.0374 16.6545 46.9317 16.9528 46.822 17.2495C46.6594 17.6888 46.4944 18.1272 46.3319 18.5666C46.1771 18.9853 46.0251 19.4051 45.8704 19.8237C45.7058 20.2683 45.5377 20.7116 45.3738 21.1564C45.2174 21.5804 45.0667 22.0063 44.9096 22.4301C44.7487 22.8641 44.5797 23.2951 44.4215 23.73C44.3486 23.9306 44.291 24.1369 44.2307 24.3419C44.2037 24.4339 44.1581 24.4726 44.0718 24.4127C43.4239 23.9627 42.7842 23.4998 42.3823 22.7966C42.1645 22.4152 41.9318 22.0321 41.7893 21.6208C41.6482 21.2138 41.5497 20.7768 41.6059 20.3339C41.6253 20.1797 41.6932 20.0311 41.7426 19.8812C41.9048 19.3872 42.0705 18.8941 42.232 18.3998C42.3479 18.0454 42.457 17.6887 42.5739 17.3346C42.6867 16.9916 42.8077 16.6513 42.9215 16.3086C43.0299 15.9817 43.1328 15.653 43.2402 15.3257C43.3578 14.9668 43.4788 14.6088 43.5971 14.2499C43.7027 13.928 43.8063 13.6052 43.9116 13.283C44.0326 12.9126 44.1547 12.5426 44.276 12.1722C44.3833 11.8444 44.4893 11.5162 44.5967 11.1884C44.7184 10.8178 44.8424 10.448 44.9628 10.0769C45.0773 9.72209 45.184 9.36452 45.3022 9.01095C45.4386 8.6041 45.5838 8.20025 45.7364 7.78652C45.8043 7.7766 45.8612 7.77411 45.9178 7.77404C47.3581 7.77254 48.7981 7.77131 50.2385 7.77002ZM42.9849 16.484C42.9594 16.5387 42.9256 16.5911 42.9096 16.6485C42.8527 16.8505 42.8087 17.0563 42.7474 17.2568C42.6679 17.5155 42.5776 17.7707 42.4907 18.0269C42.4338 18.1955 42.3759 18.3638 42.3155 18.5312C42.2426 18.7345 42.1591 18.9342 42.0947 19.14C42.0323 19.3407 41.9894 19.5474 41.9358 19.7509C41.9304 19.7715 41.9079 19.7872 41.8997 19.8077C41.8697 19.8843 41.8408 19.9615 41.8145 20.0396C41.7968 20.0922 41.7845 20.1466 41.7692 20.2001C41.7406 20.3001 41.685 20.4008 41.6881 20.4998C41.6976 20.8135 41.8687 21.1047 41.8278 21.428C41.8275 21.4331 41.8305 21.4389 41.8329 21.4441C41.912 21.6369 41.9788 21.8358 42.0725 22.021C42.2293 22.3303 42.3714 22.655 42.5783 22.9286C42.8172 23.2446 43.1076 23.5259 43.3994 23.7966C43.6141 23.9958 43.867 24.1536 44.0909 24.3208C44.1615 24.1431 44.2249 23.988 44.2845 23.8314C44.3649 23.6204 44.4437 23.4086 44.5207 23.1964C44.5814 23.0299 44.6397 22.8625 44.6969 22.6948C44.7572 22.5183 44.809 22.3387 44.8755 22.1647C44.9437 21.9859 45.0299 21.8141 45.0998 21.6359C45.187 21.4131 45.2668 21.1872 45.3482 20.9621C45.4045 20.8058 45.461 20.6495 45.5125 20.4916C45.5725 20.3087 45.6226 20.1224 45.6857 19.9407C45.7617 19.7213 45.8469 19.5049 45.9287 19.2874C45.9423 19.2512 45.96 19.2166 45.974 19.1806C46.0043 19.1049 46.0357 19.0297 46.0616 18.9526C46.0756 18.9107 46.0715 18.8617 46.0892 18.822C46.1649 18.6517 46.2576 18.4879 46.322 18.3136C46.3884 18.1337 46.4293 17.9444 46.4825 17.7595C46.4869 17.7439 46.5006 17.731 46.5071 17.7157C46.5854 17.5294 46.669 17.345 46.7395 17.1558C46.8036 16.9849 46.8516 16.8081 46.9096 16.635C46.9535 16.5046 46.9999 16.3752 47.0486 16.2466C47.1281 16.0355 47.2102 15.8253 47.291 15.6146C47.3046 15.5784 47.3165 15.5412 47.3315 15.5054C47.4065 15.3251 47.4893 15.1477 47.5561 14.9644C47.6188 14.7929 47.6635 14.6148 47.7197 14.4406C47.7565 14.326 47.7947 14.2113 47.8411 14.1C47.912 13.9286 47.9938 13.7616 48.0643 13.5899C48.1277 13.4358 48.1867 13.2796 48.2381 13.1214C48.2981 12.9386 48.3411 12.7502 48.4034 12.5684C48.4818 12.3399 48.5718 12.1155 48.6577 11.8896C48.6676 11.8638 48.6839 11.8407 48.6945 11.8152C48.7269 11.7353 48.7593 11.6554 48.7886 11.5745C48.8036 11.533 48.808 11.4875 48.8244 11.4467C48.9017 11.2534 48.9869 11.063 49.0592 10.8678C49.1202 10.7021 49.1618 10.5292 49.2221 10.3633C49.3012 10.1465 49.3932 9.93446 49.474 9.71831C49.5306 9.56732 49.5745 9.41163 49.6301 9.26023C49.7126 9.0361 49.8005 8.81412 49.885 8.59084C49.9399 8.44575 49.9794 8.29278 50.0503 8.15618C50.1427 7.9785 50.096 7.86961 49.8929 7.86923C48.6038 7.86671 47.3145 7.86589 46.0255 7.87309C45.9488 7.87353 45.8373 7.92885 45.8029 7.9918C45.7249 8.13553 45.685 8.30001 45.6287 8.4557C45.6137 8.49732 45.5933 8.53702 45.5783 8.57857C45.5497 8.65607 45.5217 8.73375 45.4965 8.81235C45.4798 8.86521 45.4706 8.92053 45.4536 8.97339C45.4236 9.06749 45.3891 9.1603 45.3585 9.25423C45.3445 9.2967 45.3384 9.34193 45.3227 9.38358C45.248 9.58102 45.1615 9.77458 45.0974 9.97536C45.0323 10.1807 44.9887 10.393 44.9338 10.6019C44.9283 10.623 44.9089 10.6401 44.9011 10.6609C44.8274 10.8575 44.7463 11.0518 44.684 11.252C44.6195 11.4572 44.5742 11.6682 44.5197 11.8764C44.5156 11.8921 44.4989 11.9041 44.4931 11.9197C44.4181 12.1212 44.3367 12.3206 44.2722 12.5254C44.2095 12.7241 44.1645 12.9284 44.1114 13.1301C44.1086 13.1405 44.0974 13.1485 44.0936 13.1588C44.0599 13.2505 44.0265 13.3421 43.9945 13.4343C43.9781 13.4812 43.9658 13.5296 43.9491 13.5764C43.9198 13.6583 43.8864 13.7387 43.8595 13.8213C43.8438 13.8687 43.8421 13.9206 43.8268 13.9682C43.7937 14.0716 43.7559 14.1734 43.7208 14.2761C43.7078 14.3129 43.6979 14.3507 43.6846 14.3874C43.6523 14.4795 43.6182 14.5711 43.5855 14.6631C43.5667 14.715 43.5497 14.7674 43.5316 14.8194C43.5043 14.8972 43.4747 14.9741 43.4505 15.0527C43.4338 15.1059 43.4311 15.1636 43.4113 15.2152C43.3377 15.4097 43.2494 15.5994 43.1853 15.797C43.1141 16.016 43.0633 16.2417 42.9849 16.484Z" fill="#FEF9E6"/>
<path d="M50.2302 7.75393C48.7919 7.77012 47.3519 7.77135 45.9115 7.77285C45.8549 7.77292 45.798 7.77541 45.7261 7.77493C45.7094 7.68147 45.7541 7.63713 45.8457 7.63959C45.874 7.64033 45.9023 7.6388 45.9306 7.6388C47.2909 7.63877 48.6508 7.63815 50.0107 7.6403C50.0932 7.6404 50.2029 7.60284 50.2302 7.75393Z" fill="#FEF9E6"/>
<path d="M17.6174 27.6455C15.0165 27.6462 12.4325 27.6463 9.84839 27.6484C9.68428 27.6485 9.52014 27.6632 9.35606 27.6713C9.24332 27.6769 9.16394 27.6543 9.18787 27.5103C9.2017 27.427 9.19908 27.3406 9.19908 27.2555C9.19952 20.9231 9.19952 14.5908 9.19915 8.25835C9.19915 8.17897 9.20371 8.09779 9.18933 8.02059C9.16091 7.86824 9.24141 7.84359 9.36377 7.85102C9.52212 7.86064 9.68067 7.87314 9.83912 7.87325C12.48 7.87522 15.1209 7.8665 17.7617 7.8834C18.3111 7.88695 18.8632 7.95597 19.4007 8.10119C19.6494 8.16841 19.9076 8.20055 20.1566 8.26708C20.3939 8.3305 20.6273 8.41114 20.8577 8.49673C21.1148 8.59219 21.3695 8.69512 21.6198 8.80709C21.856 8.91278 22.0935 9.02034 22.3156 9.15207C22.7282 9.39676 23.1299 9.65961 23.536 9.91502C23.5552 9.92709 23.5767 9.93741 23.5921 9.95343C24.059 10.4395 24.5535 10.9026 24.9824 11.4202C25.3149 11.8216 25.5746 12.2854 25.8479 12.7329C25.9701 12.9329 26.0537 13.1581 26.1418 13.377C26.2745 13.7066 26.4003 14.0392 26.52 14.3738C26.5787 14.5377 26.6276 14.7068 26.6625 14.8774C26.7334 15.2249 26.7948 15.5745 26.8545 15.9243C26.8944 16.1577 26.9446 16.3919 26.955 16.6274C26.9788 17.1656 26.9829 17.7048 26.9913 18.2436C26.9973 18.6356 26.9853 19.0239 26.8719 19.4068C26.8215 19.577 26.8578 19.7719 26.8144 19.9455C26.7106 20.3604 26.5893 20.7714 26.4625 21.1801C26.3795 21.4477 26.2943 21.7178 26.1749 21.9701C25.9725 22.3974 25.7547 22.8186 25.5209 23.2296C25.1713 23.8441 24.705 24.3731 24.2078 24.8683C23.7711 25.3032 23.3097 25.7157 22.7649 26.0207C22.4797 26.1804 22.2126 26.3754 21.9192 26.5164C21.5398 26.6986 21.1468 26.855 20.7513 26.9997C20.3927 27.1309 20.0278 27.2517 19.6569 27.3398C19.2739 27.4309 18.881 27.4823 18.491 27.5413C18.2066 27.5843 17.9199 27.6113 17.6174 27.6455ZM22.3845 16.1169C22.2421 15.6572 22.1327 15.1837 21.9485 14.7413C21.7313 14.2199 21.4393 13.736 21.0522 13.3096C20.6558 12.873 20.228 12.4772 19.7144 12.1919C18.862 11.7185 17.9477 11.4721 16.963 11.4861C15.9071 11.5011 14.8508 11.4892 13.7946 11.4895C13.5396 11.4895 13.5312 11.4989 13.5312 11.7622C13.5313 12.9489 13.5313 14.1357 13.5313 15.3224C13.5313 18.1218 13.5312 20.9212 13.5313 23.7205C13.5313 23.9698 13.5526 23.9971 13.7614 23.999C14.9758 24.0102 16.1903 24.0343 17.4046 24.0258C18.1815 24.0203 18.9191 23.8033 19.6056 23.4467C20.5325 22.9651 21.2273 22.2391 21.7241 21.3232C22.282 20.2946 22.5326 19.1856 22.5547 18.0235C22.5667 17.3931 22.5173 16.7651 22.3845 16.1169Z" fill="#233650"/>
<path d="M89.5224 16.1477C89.2269 16.402 88.8786 16.5415 88.5477 16.7086C88.2205 16.8735 87.8725 16.9825 87.5105 17.0474C87.4488 17.0584 87.3946 17.1113 87.337 17.1449C87.3895 17.1856 87.4359 17.2474 87.4952 17.2634C87.8595 17.3618 88.2334 17.4306 88.592 17.5464C89.0207 17.685 89.428 17.8757 89.7954 18.1476C90.2845 18.5093 90.7092 18.9354 91.0214 19.453C91.2143 19.773 91.3527 20.1315 91.4754 20.4865C91.5889 20.8152 91.7003 21.1591 91.7215 21.502C91.7634 22.1723 91.8425 22.8531 91.6264 23.5124C91.4897 23.9295 91.3786 24.3632 91.1779 24.7488C90.9928 25.1036 90.7198 25.4181 90.455 25.7241C90.2079 26.0103 89.9151 26.2521 89.5719 26.4294C89.2525 26.5945 88.9556 26.8069 88.6274 26.9502C88.3094 27.0893 87.9659 27.1723 87.6308 27.2699C87.3333 27.3566 87.0361 27.4604 86.7314 27.5016C86.1435 27.5809 85.5508 27.6671 84.9594 27.6703C81.9376 27.6869 78.9155 27.678 75.8937 27.678C75.5938 27.678 75.5938 27.6779 75.5938 27.3745C75.5938 20.9615 75.5938 14.5484 75.5938 8.13542C75.5938 7.84299 75.5941 7.84278 75.8875 7.84278C78.6367 7.84275 81.3862 7.83702 84.1353 7.84837C84.5975 7.85028 85.0589 7.92823 85.5211 7.96705C85.7355 7.98508 85.9543 7.97431 86.1653 8.01064C86.5184 8.07151 86.8674 8.15744 87.2171 8.23712C87.4359 8.28692 87.6595 8.32666 87.8691 8.40352C88.1008 8.48848 88.3306 8.59162 88.5402 8.72069C88.9482 8.97171 89.3718 9.21166 89.7317 9.52205C90.0303 9.77907 90.2658 10.1175 90.4935 10.4449C90.6554 10.6783 90.7866 10.9432 90.8789 11.2121C90.9751 11.4923 91.0102 11.7936 91.0674 12.0867C91.079 12.147 91.0552 12.2159 91.0729 12.2731C91.1976 12.6744 91.0995 13.0761 91.0582 13.4716C91.0282 13.7577 90.911 14.0352 90.8268 14.3149C90.7897 14.4388 90.7498 14.5645 90.6915 14.6793C90.4512 15.1502 90.1622 15.587 89.7661 15.9445C89.6908 16.0126 89.6097 16.0747 89.5224 16.1477ZM79.924 21.2879C79.924 22.1681 79.9237 23.0482 79.9237 23.9284C79.9237 24.1526 79.9397 24.1682 80.168 24.1682C81.3776 24.1683 82.5872 24.1613 83.7965 24.1709C84.4103 24.1758 85.0136 24.111 85.5845 23.8904C85.8912 23.7719 86.2069 23.6171 86.4478 23.4003C87.0354 22.8715 87.2668 22.1863 87.1833 21.3938C87.0903 20.5063 86.6043 19.9055 85.8146 19.5519C85.3101 19.326 84.7662 19.2276 84.2082 19.228C82.8568 19.2292 81.5054 19.2273 80.1541 19.2273C79.9444 19.2273 79.924 19.2486 79.9237 19.4652C79.9233 20.0614 79.924 20.6576 79.924 21.2879ZM85.7542 15.4286C86.0794 15.1909 86.3227 14.879 86.4526 14.5061C86.6929 13.8157 86.6861 13.1261 86.3302 12.4642C86.1397 12.1099 85.8694 11.8233 85.516 11.6427C85.0719 11.4159 84.5896 11.3173 84.0865 11.3189C82.7805 11.323 81.4744 11.3199 80.1684 11.3199C79.9421 11.3199 79.9237 11.3376 79.9237 11.5608C79.9233 12.9408 79.9233 14.3207 79.924 15.7007C79.924 15.9584 79.9492 15.9827 80.2072 15.9828C81.2635 15.9831 82.32 15.9885 83.3759 15.9798C83.7382 15.9768 84.1012 15.9507 84.4615 15.9122C84.9223 15.8629 85.3681 15.756 85.7542 15.4286Z" fill="#233650"/>
<path d="M42.9228 16.4821C42.9932 16.2442 43.0452 16.0133 43.1181 15.7892C43.1837 15.5871 43.274 15.393 43.3493 15.1939C43.3695 15.1411 43.3723 15.082 43.3894 15.0277C43.4142 14.9473 43.4445 14.8685 43.4724 14.789C43.4909 14.7357 43.5083 14.6821 43.5275 14.629C43.561 14.5349 43.5959 14.4411 43.629 14.3469C43.6426 14.3093 43.6527 14.2707 43.666 14.2329C43.7019 14.1279 43.7406 14.0237 43.7744 13.9179C43.7901 13.8693 43.7919 13.8162 43.8079 13.7676C43.8355 13.6831 43.8696 13.6009 43.8996 13.5171C43.9167 13.4692 43.9293 13.4197 43.946 13.3716C43.9788 13.2774 44.013 13.1836 44.0475 13.0898C44.0513 13.0792 44.0628 13.071 44.0656 13.0604C44.12 12.854 44.1661 12.645 44.2302 12.4417C44.2961 12.2321 44.3795 12.028 44.4562 11.8219C44.4622 11.8059 44.4792 11.7936 44.4834 11.7776C44.5392 11.5646 44.586 11.3486 44.6515 11.1387C44.7153 10.9339 44.7983 10.735 44.8737 10.5339C44.8817 10.5126 44.9016 10.4951 44.9075 10.4735C44.9633 10.2598 45.0079 10.0426 45.0745 9.83241C45.1401 9.62697 45.2287 9.42892 45.3051 9.22689C45.3211 9.18427 45.3274 9.13799 45.3417 9.09454C45.3731 8.99843 45.4083 8.90347 45.439 8.80714C45.4564 8.75309 45.4658 8.69645 45.4829 8.6424C45.5087 8.56198 45.5373 8.4825 45.5666 8.40319C45.5823 8.36068 45.6029 8.32005 45.6182 8.27747C45.6761 8.11817 45.7166 7.94986 45.7964 7.8028C45.8317 7.73835 45.9457 7.68178 46.0242 7.68133C47.3431 7.67397 48.6624 7.67481 49.9814 7.67739C50.1892 7.67777 50.237 7.7892 50.1425 7.971C50.0699 8.11077 50.0295 8.26725 49.9733 8.41575C49.8869 8.64421 49.7969 8.87135 49.7125 9.10068C49.6556 9.25559 49.6106 9.4149 49.5531 9.56939C49.4701 9.79053 49.3759 10.0075 49.295 10.2293C49.2333 10.3991 49.1908 10.576 49.1283 10.7455C49.0544 10.9453 48.9672 11.1401 48.8881 11.3379C48.8713 11.3797 48.8668 11.4262 48.8514 11.4686C48.8214 11.5515 48.7883 11.6332 48.7552 11.7149C48.7444 11.7411 48.7276 11.7647 48.7175 11.7911C48.6296 12.0222 48.5376 12.2518 48.4574 12.4856C48.3939 12.6717 48.3496 12.8644 48.2882 13.0515C48.2356 13.2134 48.1752 13.3732 48.1104 13.5308C48.0385 13.7065 47.9545 13.8774 47.8819 14.0529C47.8348 14.1667 47.7954 14.284 47.7578 14.4014C47.7002 14.5795 47.6545 14.7618 47.5904 14.9373C47.522 15.1248 47.4376 15.3064 47.3606 15.4908C47.3452 15.5275 47.3334 15.5655 47.3191 15.6026C47.2364 15.8181 47.1524 16.0332 47.0711 16.2493C47.0216 16.3809 46.9738 16.5133 46.9292 16.6467C46.8695 16.8238 46.8204 17.0047 46.7548 17.1796C46.6826 17.3731 46.5972 17.5618 46.5169 17.7524C46.5103 17.7682 46.4964 17.7813 46.4918 17.7973C46.4374 17.9865 46.3956 18.1802 46.3276 18.3642C46.2617 18.5426 46.1672 18.7102 46.0894 18.8844C46.0713 18.9251 46.0754 18.9752 46.0611 19.0181C46.0346 19.097 46.0025 19.174 45.9719 19.2514C45.9572 19.2882 45.9391 19.3237 45.9251 19.3607C45.8414 19.5832 45.7542 19.8046 45.6765 20.0291C45.612 20.2151 45.5607 20.4057 45.4993 20.5928C45.4466 20.7544 45.3888 20.9144 45.3312 21.0742C45.2479 21.3046 45.1666 21.5357 45.077 21.7637C45.0055 21.946 44.9173 22.1219 44.8475 22.3048C44.7795 22.4828 44.7265 22.6666 44.6648 22.8472C44.6062 23.0188 44.5465 23.19 44.4845 23.3604C44.4057 23.5776 44.3251 23.7943 44.2428 24.0102C44.1818 24.1704 44.1169 24.3291 44.0447 24.5109C43.8156 24.3399 43.5568 24.1784 43.3371 23.9746C43.0386 23.6976 42.7414 23.4098 42.497 23.0864C42.2853 22.8064 42.1399 22.4742 41.9798 22.1578C41.8835 21.9682 41.8152 21.7647 41.7343 21.5675C41.7322 21.5621 41.7287 21.5562 41.7294 21.5509C41.7709 21.2201 41.5958 20.9221 41.5861 20.6012C41.5829 20.4999 41.6401 20.3969 41.6691 20.2945C41.6848 20.2398 41.6973 20.1841 41.7154 20.1303C41.7423 20.0505 41.7719 19.9715 41.803 19.893C41.811 19.872 41.834 19.856 41.8396 19.8349C41.8944 19.6267 41.9383 19.4152 42.0025 19.2099C42.068 18.9992 42.1535 18.7949 42.2281 18.587C42.2898 18.4156 42.3491 18.2434 42.4074 18.0709C42.4963 17.8087 42.589 17.5476 42.67 17.2829C42.7327 17.0778 42.7777 16.8672 42.836 16.6605C42.8523 16.6018 42.8869 16.5481 42.9228 16.4821Z" fill="#FEF9E6"/>
<path d="M50.1538 7.89717C50.1487 7.88973 50.159 7.9046 50.1538 7.89717V7.89717Z" fill="#FEF9E6"/>
</g>
<path d="M38.0453 33.3616H40.5956C41.4495 33.3616 42.19 33.5203 42.8171 33.8377C43.4443 34.155 43.9241 34.6084 44.2566 35.1978C44.5967 35.7872 44.7667 36.4824 44.7667 37.2834C44.7667 38.5982 44.3851 39.5956 43.6219 40.2757C42.8663 40.9482 41.8046 41.2844 40.4369 41.2844H38.0453V33.3616ZM40.4256 40.321C41.4835 40.321 42.2769 40.0603 42.8058 39.5389C43.3348 39.0175 43.5992 38.2657 43.5992 37.2834C43.5992 36.3766 43.3385 35.6587 42.8171 35.1298C42.3033 34.6009 41.5666 34.3364 40.6069 34.3364H39.2015V40.321H40.4256ZM46.4683 33.3616H47.6357V41.2844H46.4683V33.3616ZM53.5342 41.4544C52.7181 41.4544 51.9927 41.2844 51.3579 40.9444C50.7232 40.6044 50.2283 40.1245 49.8731 39.5049C49.518 38.8777 49.3404 38.1523 49.3404 37.3287C49.3404 36.5051 49.518 35.7796 49.8731 35.1525C50.2283 34.5253 50.7232 34.0417 51.3579 33.7017C51.9927 33.3616 52.7181 33.1916 53.5342 33.1916C54.6298 33.1916 55.5404 33.4636 56.2658 34.0077V35.1185C55.6084 34.5442 54.7318 34.2571 53.6362 34.2571C53.0392 34.2571 52.5027 34.3817 52.0267 34.6311C51.5506 34.8804 51.1766 35.2394 50.9046 35.7079C50.6401 36.1688 50.5078 36.7091 50.5078 37.3287C50.5078 37.9483 50.6401 38.4924 50.9046 38.9609C51.169 39.4293 51.5355 39.7883 52.004 40.0376C52.4725 40.287 53.0014 40.4117 53.5908 40.4117C54.2784 40.4117 54.8414 40.2719 55.2797 39.9923V37.9181H53.7722V36.9773H56.4358V40.6044C56.0806 40.8991 55.6613 41.1144 55.1776 41.2504C54.7016 41.3864 54.1538 41.4544 53.5342 41.4544ZM58.1339 33.3616H59.3014V41.2844H58.1339V33.3616ZM65.2011 33.3616H66.4026L68.1708 39.3802L69.9163 33.3616H70.823L72.5572 39.3802L74.3254 33.3616H75.5268L73.2146 41.2844H72.1152L70.3583 35.2998L68.6128 41.2844H67.5134L65.2011 33.3616ZM78.9669 33.3616H80.0777L83.24 41.2844H82.0612L81.2678 39.3122H77.7655L76.9947 41.2844H75.8046L78.9669 33.3616ZM80.9505 38.3488L79.5223 34.6424L78.0942 38.3488H80.9505ZM84.9413 33.3616H88.1262C88.9726 33.3616 89.6224 33.5656 90.0758 33.9737C90.5292 34.3817 90.7558 34.9787 90.7558 35.7645C90.7558 36.3464 90.6009 36.8413 90.2911 37.2494C89.9813 37.6498 89.5431 37.9219 88.9763 38.0654L90.7218 41.2844H89.5204L87.8315 38.1561H86.0974V41.2844H84.9413V33.3616ZM87.9336 37.1813C88.4398 37.1813 88.8403 37.0642 89.135 36.83C89.4373 36.5882 89.5884 36.233 89.5884 35.7645C89.5884 35.2507 89.441 34.8842 89.1463 34.6651C88.8592 34.446 88.4549 34.3364 87.9336 34.3364H86.0974V37.1813H87.9336ZM92.4565 33.3616H97.6817V34.3364H93.6127V36.8413H96.6503V37.8047H93.6127V40.321H97.6817V41.2844H92.4565V33.3616ZM99.3298 33.3616H100.486V36.762H104.623V33.3616H105.779V41.2844H104.623V37.7367H100.486V41.2844H99.3298V33.3616ZM111.653 41.4544C110.867 41.4544 110.157 41.2844 109.522 40.9444C108.887 40.5968 108.389 40.1094 108.026 39.4822C107.663 38.8551 107.482 38.1372 107.482 37.3287C107.482 36.5202 107.663 35.8023 108.026 35.1751C108.389 34.548 108.887 34.0606 109.522 33.713C110.157 33.3654 110.867 33.1916 111.653 33.1916C112.439 33.1916 113.149 33.3654 113.784 33.713C114.418 34.0606 114.917 34.548 115.28 35.1751C115.643 35.8023 115.824 36.5202 115.824 37.3287C115.824 38.1372 115.643 38.8551 115.28 39.4822C114.917 40.1094 114.418 40.5968 113.784 40.9444C113.149 41.2844 112.439 41.4544 111.653 41.4544ZM111.653 40.4117C112.212 40.4117 112.718 40.287 113.172 40.0376C113.633 39.7807 113.995 39.4218 114.26 38.9609C114.524 38.4924 114.657 37.9483 114.657 37.3287C114.657 36.7166 114.524 36.1801 114.26 35.7192C114.003 35.2507 113.648 34.8918 113.194 34.6424C112.741 34.3855 112.235 34.2571 111.676 34.2571C111.109 34.2571 110.595 34.3817 110.134 34.6311C109.681 34.8804 109.318 35.2394 109.046 35.7079C108.781 36.1764 108.649 36.7166 108.649 37.3287C108.649 37.9483 108.781 38.4924 109.046 38.9609C109.31 39.4218 109.669 39.7807 110.123 40.0376C110.584 40.287 111.094 40.4117 111.653 40.4117ZM120.745 41.4544C119.665 41.4544 118.848 41.1786 118.297 40.627C117.745 40.0679 117.469 39.3009 117.469 38.3261V33.3616H118.626V38.3715C118.626 39.044 118.814 39.554 119.192 39.9016C119.57 40.2417 120.088 40.4117 120.745 40.4117C121.395 40.4117 121.909 40.2417 122.287 39.9016C122.664 39.554 122.853 39.044 122.853 38.3715V33.3616H124.009V38.3261C124.009 39.2933 123.734 40.0565 123.182 40.6157C122.63 41.1749 121.818 41.4544 120.745 41.4544ZM128.081 41.4544C127.628 41.4544 127.179 41.4129 126.733 41.3298C126.294 41.2542 125.935 41.1484 125.656 41.0124V39.9696C126.381 40.3097 127.163 40.4797 128.002 40.4797C129.181 40.4797 129.77 40.083 129.77 39.2896C129.77 39.0175 129.706 38.7984 129.578 38.6322C129.449 38.4659 129.264 38.3223 129.022 38.2014C128.78 38.073 128.388 37.8992 127.843 37.6801C127.095 37.3778 126.555 37.0453 126.223 36.6826C125.89 36.3199 125.724 35.8628 125.724 35.3112C125.724 34.8956 125.837 34.5291 126.064 34.2117C126.291 33.8868 126.608 33.6374 127.016 33.4636C127.424 33.2823 127.893 33.1916 128.422 33.1916C128.852 33.1916 129.241 33.2256 129.589 33.2936C129.937 33.3616 130.277 33.4712 130.609 33.6223V34.6198C129.952 34.3251 129.287 34.1777 128.614 34.1777C128.07 34.1777 127.655 34.2759 127.367 34.4724C127.08 34.6689 126.937 34.9485 126.937 35.3112C126.937 35.5605 126.997 35.7721 127.118 35.9459C127.247 36.1121 127.432 36.2633 127.673 36.3993C127.923 36.5277 128.289 36.6902 128.773 36.8866C129.309 37.1058 129.733 37.3136 130.042 37.51C130.352 37.7065 130.586 37.9483 130.745 38.2355C130.911 38.515 130.994 38.8664 130.994 39.2896C130.994 39.9772 130.749 40.5099 130.258 40.8877C129.767 41.2655 129.041 41.4544 128.081 41.4544ZM132.689 33.3616H137.915V34.3364H133.846V36.8413H136.883V37.8047H133.846V40.321H137.915V41.2844H132.689V33.3616Z" fill="#002937"/>
</svg>
