<svg width="21" height="22" viewBox="0 0 21 22" fill="none" xmlns="http://www.w3.org/2000/svg">
<path d="M9.99902 0.75C10.3521 0.75 10.7 0.78083 11.043 0.842773C11.1733 0.866318 11.5785 0.987151 12.0078 1.14844C11.5966 1.86809 11.343 2.66937 11.2705 3.5C11.1798 4.54001 11.3739 5.58539 11.832 6.52344C12.2902 7.46145 12.9951 8.25737 13.8711 8.8252C14.6213 9.31143 15.473 9.61268 16.3574 9.71191C16.3631 9.77652 16.3675 9.84128 16.374 9.90527V9.90723C16.5866 11.9225 17.0388 13.4022 17.5166 14.459L17.7217 14.8857C18.086 15.5985 18.4491 16.0804 18.7158 16.3818V16.3828C18.8367 16.5199 18.9676 16.6478 19.1064 16.7666L19.1377 16.7939L19.1523 16.8018C19.1925 16.8325 19.2226 16.8746 19.2383 16.9229C19.2546 16.973 19.2546 17.027 19.2383 17.0771C19.2219 17.1273 19.1901 17.1712 19.1475 17.2021C19.1047 17.2332 19.0529 17.2501 19 17.25H1C0.947267 17.2499 0.895186 17.2332 0.852539 17.2021C0.810041 17.1711 0.778967 17.1272 0.762695 17.0771C0.746396 17.027 0.745479 16.973 0.761719 16.9229C0.777959 16.8727 0.809949 16.8289 0.852539 16.7979L0.871094 16.7852L0.887695 16.7705L0.894531 16.7627L0.952148 16.7148L0.958984 16.71L0.964844 16.7051C1.03507 16.6419 1.14543 16.5358 1.28125 16.3818C1.54851 16.0809 1.91217 15.5992 2.27637 14.8867C3.00696 13.4583 3.74897 11.0986 3.74902 7.40039C3.74902 5.64192 4.40413 3.9522 5.57422 2.7041C6.74535 1.45509 8.33659 0.750026 9.99902 0.75Z" fill="black" stroke="black"/>
<path fill-rule="evenodd" clip-rule="evenodd" d="M13.25 4C13.25 3.00544 13.6451 2.05161 14.3484 1.34835C15.0516 0.645088 16.0055 0.25 17 0.25C17.9946 0.25 18.9484 0.645088 19.6517 1.34835C20.3549 2.05161 20.75 3.00544 20.75 4C20.75 4.99456 20.3549 5.94839 19.6517 6.65165C18.9484 7.35491 17.9946 7.75 17 7.75C16.0055 7.75 15.0516 7.35491 14.3484 6.65165C13.6451 5.94839 13.25 4.99456 13.25 4ZM7.89404 19.351C7.97926 19.3016 8.07338 19.2695 8.17102 19.2565C8.26866 19.2435 8.3679 19.2498 8.46308 19.2752C8.55826 19.3005 8.64752 19.3444 8.72575 19.4042C8.80399 19.4641 8.86966 19.5388 8.91904 19.624C9.02895 19.8133 9.18665 19.9704 9.37636 20.0796C9.56607 20.1889 9.78113 20.2464 10 20.2464C10.2189 20.2464 10.434 20.1889 10.6237 20.0796C10.8134 19.9704 10.9711 19.8133 11.081 19.624C11.1305 19.5388 11.1962 19.4641 11.2745 19.4043C11.3528 19.3445 11.4421 19.3007 11.5373 19.2754C11.6326 19.2501 11.7319 19.2438 11.8295 19.2568C11.9272 19.2699 12.0213 19.3021 12.1065 19.3515C12.1918 19.4009 12.2664 19.4667 12.3262 19.545C12.3861 19.6233 12.4299 19.7126 12.4552 19.8078C12.4805 19.903 12.4868 20.0023 12.4737 20.1C12.4607 20.1976 12.4285 20.2918 12.379 20.377C12.1373 20.7938 11.7903 21.1399 11.3728 21.3804C10.9553 21.6209 10.4819 21.7476 10 21.7476C9.51818 21.7476 9.04478 21.6209 8.62726 21.3804C8.20973 21.1399 7.86274 20.7938 7.62104 20.377C7.5715 20.2917 7.53926 20.1975 7.52617 20.0998C7.51308 20.002 7.51939 19.9027 7.54475 19.8074C7.57011 19.7121 7.61401 19.6227 7.67394 19.5444C7.73388 19.4661 7.80867 19.4004 7.89404 19.351Z" fill="#4F9EBB"/>
</svg>
